<svg width="336" height="323" viewBox="0 0 336 323" fill="none" xmlns="http://www.w3.org/2000/svg">
<g filter="url(#filter0_d_416_3)">
<path d="M4 289C26.5656 272.2 41.8959 238.603 34.9784 198.567H29.5016V174H87.6931C95.0292 246.759 69.3191 284.756 4 289Z" fill="#4B5563"/>
<ellipse cx="55.8867" cy="115" rx="37.7358" ry="40" fill="#4B5563"/>
<path d="M109.389 143.728L105.069 144.016L102.477 135.664C115.917 132.4 125.805 129.136 132.141 125.872C138.477 122.608 142.029 120.784 142.797 120.4C145.293 120.4 146.733 120.592 147.117 120.976C147.885 121.744 148.461 127.888 148.845 139.408C164.205 128.272 178.125 122.704 190.605 122.704C207.117 122.704 218.637 128.464 225.165 139.984C241.293 128.464 256.269 122.704 270.093 122.704C297.933 122.704 311.853 137.008 311.853 165.616V229.552C311.853 233.008 312.717 235.408 314.445 236.752C316.173 237.904 320.397 238.768 327.117 239.344L329.709 250.864L301.485 250L270.381 250.864L268.077 239.344C277.293 238.576 282.765 237.808 284.493 237.04C286.413 236.08 287.373 233.584 287.373 229.552V175.408C287.373 163.12 284.973 154.576 280.173 149.776C275.373 144.784 267.885 142.288 257.709 142.288C247.725 142.288 238.221 145.456 229.197 151.792C230.157 156.592 230.637 161.2 230.637 165.616V229.552C230.637 233.008 231.501 235.408 233.229 236.752C234.957 237.904 239.181 238.768 245.901 239.344L248.493 250.864L220.269 250L189.165 250.864L186.861 239.344C196.077 238.576 201.549 237.808 203.277 237.04C205.197 236.08 206.157 233.584 206.157 229.552V175.408C206.157 163.12 203.757 154.48 198.957 149.488C194.349 144.496 187.437 142 178.221 142C169.005 142 159.405 144.688 149.421 150.064V229.552C149.421 233.008 150.285 235.408 152.013 236.752C153.741 237.904 157.965 238.768 164.685 239.344L167.277 250.864L139.053 250L107.949 250.864L105.645 239.344C114.861 238.576 120.333 237.808 122.061 237.04C123.981 236.08 124.941 233.584 124.941 229.552V162.16C124.941 155.248 123.693 150.448 121.197 147.76C118.701 145.072 114.765 143.728 109.389 143.728Z" fill="#4B5563"/>
</g>
<defs>
<filter id="filter0_d_416_3" x="0" y="75" width="333.709" height="222" filterUnits="userSpaceOnUse" color-interpolation-filters="sRGB">
<feFlood flood-opacity="0" result="BackgroundImageFix"/>
<feColorMatrix in="SourceAlpha" type="matrix" values="0 0 0 0 0 0 0 0 0 0 0 0 0 0 0 0 0 0 127 0" result="hardAlpha"/>
<feOffset dy="4"/>
<feGaussianBlur stdDeviation="2"/>
<feComposite in2="hardAlpha" operator="out"/>
<feColorMatrix type="matrix" values="0 0 0 0 0 0 0 0 0 0 0 0 0 0 0 0 0 0 0.25 0"/>
<feBlend mode="normal" in2="BackgroundImageFix" result="effect1_dropShadow_416_3"/>
<feBlend mode="normal" in="SourceGraphic" in2="effect1_dropShadow_416_3" result="shape"/>
</filter>
</defs>
</svg>
